<?xml version="1.0" encoding="UTF-8" standalone="no"?>
<!DOCTYPE svg PUBLIC "-//W3C//DTD SVG 1.1//EN" "http://www.w3.org/Graphics/SVG/1.1/DTD/svg11.dtd">
<svg width="100%" height="100%" viewBox="0 0 16 16" version="1.1" xmlns="http://www.w3.org/2000/svg" xmlns:xlink="http://www.w3.org/1999/xlink" xml:space="preserve" xmlns:serif="http://www.serif.com/" style="fill-rule:evenodd;clip-rule:evenodd;stroke-linejoin:round;stroke-miterlimit:2;">
    <g transform="matrix(0.042759,0,0,0.042759,-11.609965,-21.653277)">
        <path d="M618,616C616.153,649.031 604.92,758.777 598,783C588.225,817.219 549.585,863.99 488,864C448.419,864.006 387.494,841.631 374,782C359.29,716.993 448.666,699.913 455,751.075C457.285,769.532 450.718,776.241 461,785C491.613,811.078 519.582,780.568 522,754C524.418,727.432 521.278,699.604 523,658C491.385,669.153 475.388,657.942 468,624C465.778,613.79 467.646,605.407 478,604C488.354,602.593 565.35,584.607 584,585C602.65,585.393 619.918,581.701 618,616Z" style="fill:rgb(254,169,2);"/>
    </g>
    <g transform="matrix(0.728155,0,0,0.728155,-0.354369,-0.092233)">
        <path d="M5.445,14.889C3.047,13.879 1.345,11.498 1.345,8.75C1.345,5.666 3.489,3.043 6.356,2.303C6.121,2.114 5.97,1.825 5.97,1.5C5.97,0.932 6.432,0.47 7,0.47L9,0.47C9.568,0.47 10.03,0.932 10.03,1.5C10.03,1.825 9.879,2.114 9.644,2.303C11.104,2.68 12.375,3.544 13.273,4.709C12.887,4.788 12.601,4.844 12.476,4.861L12.141,4.936L11.814,5.076L11.516,5.289L11.287,5.552C10.68,4.929 9.901,4.476 9.03,4.273L9.03,4.375C9.03,4.943 8.568,5.405 8,5.405C7.432,5.405 6.97,4.943 6.97,4.375L6.97,4.273C5.27,4.669 3.918,6.02 3.523,7.72C4.081,7.732 4.53,8.189 4.53,8.75C4.53,9.311 4.081,9.768 3.523,9.78C3.866,11.254 4.927,12.466 6.311,13.02C6.168,13.181 6.038,13.357 5.924,13.548C5.692,13.935 5.521,14.383 5.445,14.889ZM14.221,11.102C13.797,12.21 13.083,13.18 12.174,13.917C11.978,13.151 11.547,12.591 10.988,12.229C11.712,11.606 12.242,10.763 12.47,9.808C12.502,9.83 12.533,9.852 12.565,9.872C13.017,10.159 13.562,10.308 14.219,10.272C14.217,10.56 14.218,10.836 14.221,11.102ZM12.431,9.78L12.375,9.78C11.807,9.78 11.345,9.318 11.345,8.75C11.345,8.629 11.366,8.514 11.404,8.406C11.672,9.027 12.021,9.478 12.431,9.78ZM10.999,7.003C10.955,7.177 10.865,7.342 10.728,7.478L9.469,8.737L9.469,8.75C9.469,9.561 8.811,10.219 8,10.219C7.189,10.219 6.531,9.561 6.531,8.75C6.531,7.939 7.189,7.281 8,7.281L8.013,7.281L9.272,6.022C9.674,5.62 10.326,5.62 10.728,6.022C10.849,6.143 10.934,6.287 10.982,6.439C10.967,6.617 10.972,6.805 10.999,7.003Z" style="fill:rgb(224,224,224);"/>
    </g>
</svg>
