<?xml version="1.0" encoding="UTF-8" standalone="no"?>
<!DOCTYPE svg PUBLIC "-//W3C//DTD SVG 1.1//EN" "http://www.w3.org/Graphics/SVG/1.1/DTD/svg11.dtd">
<svg width="100%" height="100%" viewBox="0 0 16 16" version="1.1" xmlns="http://www.w3.org/2000/svg" xmlns:xlink="http://www.w3.org/1999/xlink" xml:space="preserve" xmlns:serif="http://www.serif.com/" style="fill-rule:evenodd;clip-rule:evenodd;stroke-linejoin:round;stroke-miterlimit:2;">
    <g transform="matrix(0.884891,0,0,0.884891,1.726641,1.740228)">
        <path d="M7.531,1.117L8,0.882L15,4.382L15,11.618L8,15.118L1,11.618L1,5.044C1.246,5.022 1.499,4.983 1.76,4.93C2.903,4.7 4.23,4.165 5.771,4.233L4.236,5L8,6.882L11.764,5L9.469,3.853C9.455,3.815 9.437,3.778 9.417,3.742C9.417,3.742 8.705,2.479 7.531,1.117ZM13,6.618L9,8.618L9,12.382L13,10.382L13,6.618ZM7,12.382L7,8.618L3,6.618L3,10.382L7,12.382Z" style="fill:rgb(252,127,127);"/>
    </g>
    <g transform="matrix(-0.981375,-0.812805,0.812805,-0.981375,7.565929,23.621301)">
        <path d="M8,11.918C8,11.918 11.82,13.379 14,12C16.18,10.621 15.161,8.299 14,8C11.386,7.233 11.678,11.118 8,11.918Z" style="fill:rgb(254,169,3);"/>
    </g>
</svg>
