<?xml version="1.0" encoding="UTF-8" standalone="no"?>
<!DOCTYPE svg PUBLIC "-//W3C//DTD SVG 1.1//EN" "http://www.w3.org/Graphics/SVG/1.1/DTD/svg11.dtd">
<svg width="100%" height="100%" viewBox="0 0 16 16" version="1.1" xmlns="http://www.w3.org/2000/svg" xmlns:xlink="http://www.w3.org/1999/xlink" xml:space="preserve" xmlns:serif="http://www.serif.com/" style="fill-rule:evenodd;clip-rule:evenodd;stroke-linejoin:round;stroke-miterlimit:2;">
    <g id="Juice-Screen-Utility" serif:id="Juice Screen Utility">
        <g transform="matrix(0.042759,0,0,0.042759,-11.609965,-21.653277)">
            <path d="M618,616C616.153,649.031 604.92,758.777 598,783C588.225,817.219 549.585,863.99 488,864C448.419,864.006 387.494,841.631 374,782C359.29,716.993 448.666,699.913 455,751.075C457.285,769.532 450.718,776.241 461,785C491.613,811.078 519.582,780.568 522,754C524.418,727.432 521.278,699.604 523,658C491.385,669.153 475.388,657.942 468,624C465.778,613.79 467.646,605.407 478,604C488.354,602.593 565.35,584.607 584,585C602.65,585.393 619.918,581.701 618,616Z" style="fill:rgb(254,169,2);"/>
        </g>
        <g transform="matrix(0.585379,0,0,0.585379,-0.585379,-0.585379)">
            <path d="M12,12L7.2,12L12,7.2L12,12Z" style="fill:rgb(69,215,255);fill-rule:nonzero;"/>
        </g>
        <g transform="matrix(0.585379,0,0,0.585379,-0.585379,-0.585379)">
            <path d="M15,12.234L15,15L1,15L1,1L15,1L15,7.119L14.664,7.36L14.355,7.713C13.99,8.239 13.858,9.003 14.048,9.874C14.264,10.868 14.589,11.646 15,12.234ZM3,3L3,13L13,13L13,3L3,3Z" style="fill:rgb(142,239,151);"/>
        </g>
        <g transform="matrix(0.585379,0,0,0.585379,-0.585379,-0.585379)">
            <path d="M4,4L8.8,4L4,8.8L4,4Z" style="fill:rgb(255,69,69);fill-rule:nonzero;"/>
        </g>
        <g transform="matrix(0.585379,0,0,0.585379,-0.585379,-0.585379)">
            <path d="M4,12L4,8.8L8.8,4L12,4L12,7.2L7.2,12L4,12Z" style="fill:rgb(128,255,69);fill-rule:nonzero;"/>
        </g>
    </g>
</svg>
