<?xml version="1.0" encoding="UTF-8" standalone="no"?>
<!DOCTYPE svg PUBLIC "-//W3C//DTD SVG 1.1//EN" "http://www.w3.org/Graphics/SVG/1.1/DTD/svg11.dtd">
<svg width="100%" height="100%" viewBox="0 0 16 16" version="1.1" xmlns="http://www.w3.org/2000/svg" xmlns:xlink="http://www.w3.org/1999/xlink" xml:space="preserve" xmlns:serif="http://www.serif.com/" style="fill-rule:evenodd;clip-rule:evenodd;stroke-linejoin:round;stroke-miterlimit:2;">
    <g id="Juice-Visibility" serif:id="Juice Visibility">
        <g transform="matrix(0.042759,0,0,0.042759,-11.609965,-21.653277)">
            <path d="M618,616C616.153,649.031 604.92,758.777 598,783C588.225,817.219 549.585,863.99 488,864C448.419,864.006 387.494,841.631 374,782C359.29,716.993 448.666,699.913 455,751.075C457.285,769.532 450.718,776.241 461,785C491.613,811.078 519.582,780.568 522,754C524.418,727.432 521.278,699.604 523,658C491.385,669.153 475.388,657.942 468,624C465.778,613.79 467.646,605.407 478,604C488.354,602.593 565.35,584.607 584,585C602.65,585.393 619.918,581.701 618,616Z" style="fill:rgb(254,169,2);"/>
        </g>
        <g transform="matrix(0.560067,0,0,0.560067,-0.479217,-0.518742)">
            <path d="M8,2C5.443,2 2.209,3.948 1.045,7.705C0.994,7.885 0.994,8.075 1.045,8.255C2.163,12.211 5.5,14 8,14C10.5,14 13.836,12.211 14.961,8.275C15.012,8.095 15.012,7.905 14.961,7.725C13.861,3.935 10.554,2 8,2ZM8,4C10.194,4 12,5.806 12,8C12,10.194 10.194,12 8,12C5.806,12 4,10.194 4,8C4,5.806 5.806,4 8,4ZM8,6C6.903,6 6,6.903 6,8C6,9.097 6.903,10 8,10C9.097,10 10,9.097 10,8C10,6.903 9.097,6 8,6Z" style="fill:rgb(224,224,224);fill-rule:nonzero;"/>
        </g>
    </g>
</svg>
