<?xml version="1.0" encoding="UTF-8" standalone="no"?>
<!DOCTYPE svg PUBLIC "-//W3C//DTD SVG 1.1//EN" "http://www.w3.org/Graphics/SVG/1.1/DTD/svg11.dtd">
<svg width="100%" height="100%" viewBox="0 0 16 16" version="1.1" xmlns="http://www.w3.org/2000/svg" xmlns:xlink="http://www.w3.org/1999/xlink" xml:space="preserve" xmlns:serif="http://www.serif.com/" style="fill-rule:evenodd;clip-rule:evenodd;stroke-linejoin:round;stroke-miterlimit:2;">
    <g transform="matrix(0.884891,0,0,0.884891,1.726641,1.740228)">
        <path d="M7.429,1L14,1C14.552,1 15,1.448 15,2L15,14C15,14.552 14.552,15 14,15L2,15C1.448,15 1,14.552 1,14L1,5.044C1.246,5.022 1.499,4.983 1.76,4.93C2.151,4.851 2.564,4.737 3,4.623L3,13L13,13L13,3L8.954,3C8.611,2.482 8.089,1.751 7.429,1Z" style="fill:rgb(141,165,243);"/>
    </g>
    <g transform="matrix(-0.981375,-0.812805,0.812805,-0.981375,7.565929,23.621301)">
        <path d="M8,11.918C8,11.918 11.82,13.379 14,12C16.18,10.621 15.161,8.299 14,8C11.386,7.233 11.678,11.118 8,11.918Z" style="fill:rgb(254,169,3);"/>
    </g>
</svg>
