<?xml version="1.0" encoding="UTF-8" standalone="no"?>
<!DOCTYPE svg PUBLIC "-//W3C//DTD SVG 1.1//EN" "http://www.w3.org/Graphics/SVG/1.1/DTD/svg11.dtd">
<svg width="100%" height="100%" viewBox="0 0 16 16" version="1.1" xmlns="http://www.w3.org/2000/svg" xmlns:xlink="http://www.w3.org/1999/xlink" xml:space="preserve" xmlns:serif="http://www.serif.com/" style="fill-rule:evenodd;clip-rule:evenodd;stroke-linejoin:round;stroke-miterlimit:2;">
    <g id="Juice-Screen" serif:id="Juice Screen">
        <g transform="matrix(0.042759,0,0,0.042759,-11.609965,-21.653277)">
            <path d="M618,616C616.153,649.031 604.92,758.777 598,783C588.225,817.219 549.585,863.99 488,864C448.419,864.006 387.494,841.631 374,782C359.29,716.993 448.666,699.913 455,751.075C457.285,769.532 450.718,776.241 461,785C491.613,811.078 519.582,780.568 522,754C524.418,727.432 521.278,699.604 523,658C491.385,669.153 475.388,657.942 468,624C465.778,613.79 467.646,605.407 478,604C488.354,602.593 565.35,584.607 584,585C602.65,585.393 619.918,581.701 618,616Z" style="fill:rgb(254,169,2);"/>
        </g>
        <g transform="matrix(0.588041,0,0,0.588041,-0.587954,-0.576886)">
            <path d="M15,12.177L15,13C15,14.097 14.097,15 13,15L7,15L7,14L13.001,14C13.55,14 14.001,13.549 14.001,13L14.001,9.648C14.01,9.7 14.02,9.753 14.032,9.805C14.251,10.81 14.581,11.593 15,12.177ZM14.001,8.488L14.001,7L15,7L15,7.081L14.632,7.345L14.33,7.689C14.174,7.914 14.062,8.184 14.001,8.488ZM3,1L9,1L9,2L3,2C2.451,2 2,2.451 2,3L2,9L1,9L1,3C1,1.903 1.903,1 3,1ZM2.921,10C3.5,9.34 4.601,9.305 5.701,10.424C6.58,11.324 6.58,12.78 5.701,13.68C4.817,14.578 3.047,14.808 2.163,13.908C-0.638,11.06 2.5,12.866 2.5,11.238C2.5,10.73 2.657,10.3 2.921,10ZM5.301,8.39L12.103,1.472C12.423,1.157 12.854,0.981 13.303,0.981C14.242,0.981 15.015,1.754 15.015,2.693C15.015,3.152 14.83,3.592 14.503,3.914L7.701,10.831L5.301,8.39Z" style="fill:rgb(224,224,224);"/>
        </g>
    </g>
</svg>
