<?xml version="1.0" encoding="UTF-8" standalone="no"?>
<!DOCTYPE svg PUBLIC "-//W3C//DTD SVG 1.1//EN" "http://www.w3.org/Graphics/SVG/1.1/DTD/svg11.dtd">
<svg width="100%" height="100%" viewBox="0 0 16 16" version="1.1" xmlns="http://www.w3.org/2000/svg" xmlns:xlink="http://www.w3.org/1999/xlink" xml:space="preserve" xmlns:serif="http://www.serif.com/" style="fill-rule:evenodd;clip-rule:evenodd;stroke-linejoin:round;stroke-miterlimit:2;">
    <g id="Juice-Areas" serif:id="Juice Areas">
        <path d="M5,14.367L5,15L1,15L1,11L2.234,11C2.388,11.653 2.656,12.216 3,12.698L3,13L3.235,13C3.731,13.59 4.347,14.04 5,14.367ZM4,7.569L4,4L6.208,4C6.217,4.063 6.228,4.127 6.242,4.193C6.431,5.061 6.761,5.648 7.19,6L6,6L6,7.632C5.672,7.481 5.302,7.407 4.921,7.409C4.614,7.41 4.301,7.464 4,7.569ZM11,1.694L11,1L15,1L15,5L14.084,5C14.131,4.474 14.166,4.03 14.183,3.729C14.234,2.816 13.994,2.329 13.713,2.046L13.392,1.805C13.244,1.725 13.081,1.669 12.904,1.635C12.63,1.583 12.306,1.595 11.974,1.588C11.774,1.584 11.424,1.626 11,1.694ZM13.31,11L15,11L15,15L11,15L11,14.101C11.472,13.781 11.879,13.402 12.217,13L13,13L13,11.807C13.129,11.544 13.229,11.285 13.299,11.039C13.303,11.027 13.307,11.014 13.31,11ZM7.233,10L8.393,10C8.349,10.088 8.295,10.172 8.234,10.248C8.106,10.408 7.947,10.545 7.75,10.563C7.582,10.578 7.407,10.497 7.217,10.339L7.229,10.096C7.23,10.065 7.232,10.033 7.233,10ZM1,1L5,1L5,3L3,3L3,5L1,5L1,1Z" style="fill:rgb(141,165,243);"/>
        <g transform="matrix(0.042759,0,0,0.042759,-13.013953,-22.653277)">
            <path d="M618,616C616.153,649.031 604.92,758.777 598,783C588.225,817.219 549.585,863.99 488,864C448.419,864.006 387.494,841.631 374,782C359.29,716.993 448.666,699.913 455,751.075C457.285,769.532 450.718,776.241 461,785C491.613,811.078 519.582,780.568 522,754C524.418,727.432 521.278,699.604 523,658C491.385,669.153 475.388,657.942 468,624C465.778,613.79 467.646,605.407 478,604C488.354,602.593 565.35,584.607 584,585C602.65,585.393 619.918,581.701 618,616Z" style="fill:rgb(254,169,2);"/>
        </g>
    </g>
</svg>
