<?xml version="1.0" encoding="UTF-8" standalone="no"?>
<!DOCTYPE svg PUBLIC "-//W3C//DTD SVG 1.1//EN" "http://www.w3.org/Graphics/SVG/1.1/DTD/svg11.dtd">
<svg width="100%" height="100%" viewBox="0 0 16 16" version="1.1" xmlns="http://www.w3.org/2000/svg" xmlns:xlink="http://www.w3.org/1999/xlink" xml:space="preserve" xmlns:serif="http://www.serif.com/" style="fill-rule:evenodd;clip-rule:evenodd;stroke-linejoin:round;stroke-miterlimit:2;">
    <g id="Juice-Visibility" serif:id="Juice Visibility">
        <g transform="matrix(0.042759,0,0,0.042759,-11.609965,-21.653277)">
            <path d="M618,616C616.153,649.031 604.92,758.777 598,783C588.225,817.219 549.585,863.99 488,864C448.419,864.006 387.494,841.631 374,782C359.29,716.993 448.666,699.913 455,751.075C457.285,769.532 450.718,776.241 461,785C491.613,811.078 519.582,780.568 522,754C524.418,727.432 521.278,699.604 523,658C491.385,669.153 475.388,657.942 468,624C465.778,613.79 467.646,605.407 478,604C488.354,602.593 565.35,584.607 584,585C602.65,585.393 619.918,581.701 618,616Z" style="fill:rgb(254,169,2);"/>
        </g>
        <g transform="matrix(1,0,0,1,-1,-1.639503)">
            <path d="M4.5,2L5.271,3.796C5.297,3.855 5.33,3.91 5.369,3.957C5.409,4.004 5.454,4.044 5.503,4.074L7,5L5.503,5.926C5.454,5.956 5.409,5.996 5.369,6.043C5.33,6.09 5.297,6.145 5.271,6.204L4.5,8L3.729,6.204C3.703,6.145 3.67,6.09 3.631,6.043C3.591,5.996 3.546,5.956 3.497,5.926L2,5L3.497,4.074C3.546,4.044 3.591,4.004 3.631,3.957C3.67,3.91 3.703,3.855 3.729,3.796L4.5,2Z" style="fill:rgb(224,224,224);"/>
        </g>
        <g transform="matrix(0.666667,0,0,0.666667,3.199096,2.947525)">
            <path d="M4.5,2L5.206,3.806C5.236,3.882 5.276,3.951 5.325,4.01C5.375,4.069 5.432,4.117 5.495,4.152L7,5L5.495,5.848C5.432,5.883 5.375,5.931 5.325,5.99C5.276,6.049 5.236,6.118 5.206,6.194L4.5,8L3.794,6.194C3.764,6.118 3.724,6.049 3.675,5.99C3.625,5.931 3.568,5.883 3.505,5.848L2,5L3.505,4.152C3.568,4.117 3.625,4.069 3.675,4.01C3.724,3.951 3.764,3.882 3.794,3.806L4.5,2Z" style="fill:rgb(224,224,224);"/>
        </g>
        <g transform="matrix(0.47671,0,0,0.47671,-0.089918,5.287994)">
            <path d="M4.5,2L5.239,3.802C5.267,3.869 5.303,3.93 5.347,3.983C5.391,4.036 5.442,4.08 5.498,4.113L7,5L5.498,5.887C5.442,5.92 5.391,5.964 5.347,6.017C5.303,6.07 5.267,6.131 5.239,6.198L4.5,8L3.761,6.198C3.733,6.131 3.697,6.07 3.653,6.017C3.609,5.964 3.558,5.92 3.502,5.887L2,5L3.502,4.113C3.558,4.08 3.609,4.036 3.653,3.983C3.697,3.93 3.733,3.869 3.761,3.802L4.5,2Z" style="fill:rgb(224,224,224);"/>
        </g>
    </g>
</svg>
