<?xml version="1.0" encoding="UTF-8" standalone="no"?>
<!DOCTYPE svg PUBLIC "-//W3C//DTD SVG 1.1//EN" "http://www.w3.org/Graphics/SVG/1.1/DTD/svg11.dtd">
<svg width="100%" height="100%" viewBox="0 0 16 16" version="1.1" xmlns="http://www.w3.org/2000/svg" xmlns:xlink="http://www.w3.org/1999/xlink" xml:space="preserve" xmlns:serif="http://www.serif.com/" style="fill-rule:evenodd;clip-rule:evenodd;stroke-linejoin:round;stroke-miterlimit:2;">
    <g id="Juice-Signals" serif:id="Juice Signals">
        <g transform="matrix(0.042759,0,0,0.042759,-11.609965,-21.653277)">
            <path d="M618,616C616.153,649.031 604.92,758.777 598,783C588.225,817.219 549.585,863.99 488,864C448.419,864.006 387.494,841.631 374,782C359.29,716.993 448.666,699.913 455,751.075C457.285,769.532 450.718,776.241 461,785C491.613,811.078 519.582,780.568 522,754C524.418,727.432 521.278,699.604 523,658C491.385,669.153 475.388,657.942 468,624C465.778,613.79 467.646,605.407 478,604C488.354,602.593 565.35,584.607 584,585C602.65,585.393 619.918,581.701 618,616Z" style="fill:rgb(254,169,2);"/>
        </g>
        <g transform="matrix(-0.729167,0,0,0.729167,10.833333,-0.882813)">
            <path d="M4.363,8.017C6.39,8.202 8,9.928 8,12C8,12.549 8.451,13 9,13C9.549,13 10,12.549 10,12C10,8.708 7.292,6 4,6C3.817,6 3.645,6.05 3.497,6.137L3.544,6.157L3.84,6.37L4.077,6.641C4.317,6.987 4.425,7.466 4.363,8.017ZM5.823,12.818C5.937,12.568 6,12.291 6,12C6,10.903 5.097,10 4,10C3.886,10 3.774,10.01 3.665,10.028C3.417,10.428 3.123,10.729 2.793,10.939C2.599,11.062 2.387,11.16 2.157,11.229C2.056,11.466 2,11.727 2,12C2,12.981 2.722,13.807 3.66,13.971C4.169,13.276 4.959,12.897 5.823,12.818ZM4,2C3.451,2 3,2.451 3,3C3,3.549 3.451,4 4,4C8.389,4 12,7.611 12,12C12,12.549 12.451,13 13,13C13.549,13 14,12.549 14,12C14,6.514 9.486,2 4,2Z" style="fill:rgb(224,224,224);"/>
        </g>
    </g>
</svg>
