<?xml version="1.0" encoding="UTF-8"?>
<svg xmlns="http://www.w3.org/2000/svg" width="128" height="128" viewBox="0 0 128 128">
	<defs>
		<linearGradient id="grad_main" x1="0" y1="0" x2="1" y2="1">
			<stop offset="0%" stop-color="#FFE17A"/>
			<stop offset="30%" stop-color="#FF6FA8"/>
			<stop offset="65%" stop-color="#A24AE2"/>
			<stop offset="100%" stop-color="#4A90E2"/>
		</linearGradient>
		<linearGradient id="grad_cyan" x1="0" y1="0" x2="1" y2="1">
			<stop offset="0%" stop-color="#8AF0E8"/>
			<stop offset="100%" stop-color="#20B2AA"/>
		</linearGradient>
		<linearGradient id="grad_warm" x1="0" y1="0" x2="1" y2="1">
			<stop offset="0%" stop-color="#FFE88A"/>
			<stop offset="100%" stop-color="#FF8A4A"/>
		</linearGradient>
		<radialGradient id="grad_core" cx="50%" cy="42%" r="50%">
			<stop offset="0%" stop-color="#FFFFFF" stop-opacity="1"/>
			<stop offset="45%" stop-color="#FFFFFF" stop-opacity="0.45"/>
			<stop offset="100%" stop-color="#FFFFFF" stop-opacity="0"/>
		</radialGradient>
	</defs>

	<polygon fill="url(#grad_main)" stroke-linejoin="round"
		points="64,12 71,57 116,64 71,71 64,116 57,71 12,64 57,57"/>

	<circle cx="64" cy="62" r="16" fill="url(#grad_core)"/>

	<polygon fill="url(#grad_cyan)" stroke-linejoin="round"
		points="100,22 102.5,33.5 114,36 102.5,38.5 100,50 97.5,38.5 86,36 97.5,33.5"/>

	<polygon fill="url(#grad_warm)" stroke-linejoin="round"
		points="28,88 30.1,97.9 40,100 30.1,102.1 28,112 25.9,102.1 16,100 25.9,97.9"/>

	<circle cx="30" cy="26" r="3" fill="#FF6FA8"/>
	<circle cx="108" cy="108" r="2.5" fill="#8AF0E8"/>
</svg>
