<?xml version="1.0" encoding="UTF-8" standalone="no"?>
<!DOCTYPE svg PUBLIC "-//W3C//DTD SVG 1.1//EN" "http://www.w3.org/Graphics/SVG/1.1/DTD/svg11.dtd">
<svg width="100%" height="100%" viewBox="0 0 16 16" version="1.1" xmlns="http://www.w3.org/2000/svg" xmlns:xlink="http://www.w3.org/1999/xlink" xml:space="preserve" xmlns:serif="http://www.serif.com/" style="fill-rule:evenodd;clip-rule:evenodd;stroke-linejoin:round;stroke-miterlimit:2;">
    <g transform="matrix(0.042759,0,0,0.042759,-15.936552,-22.653277)">
        <path d="M522.711,708.764C522.454,694.014 522.192,677.524 523,658C491.385,669.153 475.388,657.942 468,624C465.778,613.79 467.646,605.407 478,604C482.728,603.358 501.352,599.258 521.971,595.03L518.795,598.652C513.892,605.732 512.138,616.029 514.691,627.756C519.679,650.674 528.892,665.177 540.876,672.808C548.514,677.672 557.719,680.229 568.783,679.727C568.725,689.533 568.873,698.522 569.026,706.938C562.52,704.59 555.446,703.444 548.19,703.475C539.662,703.511 530.911,705.309 522.711,708.764ZM482.41,863.857C442.915,861.869 386.873,838.889 374,782C363.244,734.468 408.136,712.559 435.525,724.215C432.564,727.364 429.898,730.855 427.607,734.678C419.732,747.818 415.988,764.979 420.722,785.898C429.282,823.727 454.146,848.867 482.41,863.857Z" style="fill:rgb(254,169,2);fill-opacity:0.5;"/>
    </g>
    <g transform="matrix(0.042759,0,0,0.042759,-13.202181,-22.653277)">
        <path d="M483.344,863.901C443.804,862.231 386.975,839.339 374,782C363.164,734.116 408.804,712.236 436.13,724.479C433.269,727.559 430.687,730.962 428.46,734.678C420.584,747.818 416.841,764.979 421.575,785.898C430.143,823.764 455.047,848.915 483.344,863.901ZM522.864,717.973C522.615,700.907 522.019,681.686 523,658C491.385,669.153 475.388,657.942 468,624C465.778,613.79 467.646,605.407 478,604C482.807,603.347 501.981,599.12 523.011,594.817L519.648,598.652C514.745,605.732 512.991,616.029 515.543,627.756C520.532,650.674 529.745,665.177 541.729,672.808C549.367,677.672 558.572,680.229 569.635,679.727C569.462,709.106 571.145,731.159 569.212,752.399C568.663,758.432 566.026,764.754 562.053,769.729C558.993,773.561 555.152,776.81 550.437,777.235C546.367,777.601 542.123,775.641 537.516,771.776L537.796,765.881C538.059,761.216 538.172,755.71 537.329,748.904C535.689,735.653 530.405,725.375 522.864,717.973Z" style="fill:rgb(254,169,2);fill-opacity:0.75;"/>
    </g>
    <g transform="matrix(0.042759,0,0,0.042759,-10.431343,-22.653277)">
        <path d="M618,616C616.153,649.031 604.92,758.777 598,783C588.225,817.219 549.585,863.99 488,864C448.419,864.006 387.494,841.631 374,782C359.29,716.993 448.666,699.913 455,751.075C457.285,769.532 450.718,776.241 461,785C491.613,811.078 519.582,780.568 522,754C524.418,727.432 521.278,699.604 523,658C491.385,669.153 475.388,657.942 468,624C465.778,613.79 467.646,605.407 478,604C488.354,602.593 565.35,584.607 584,585C602.65,585.393 619.918,581.701 618,616Z" style="fill:rgb(254,169,2);"/>
    </g>
</svg>
