<?xml version="1.0" encoding="UTF-8" standalone="no"?>
<!DOCTYPE svg PUBLIC "-//W3C//DTD SVG 1.1//EN" "http://www.w3.org/Graphics/SVG/1.1/DTD/svg11.dtd">
<svg width="100%" height="100%" viewBox="0 0 16 16" version="1.1" xmlns="http://www.w3.org/2000/svg" xmlns:xlink="http://www.w3.org/1999/xlink" xml:space="preserve" xmlns:serif="http://www.serif.com/" style="fill-rule:evenodd;clip-rule:evenodd;stroke-linejoin:round;stroke-miterlimit:2;">
    <g id="Camera">
        <g transform="matrix(0.042759,0,0,0.042759,-11.609965,-21.653277)">
            <path d="M618,616C616.153,649.031 604.92,758.777 598,783C588.225,817.219 549.585,863.99 488,864C448.419,864.006 387.494,841.631 374,782C359.29,716.993 448.666,699.913 455,751.075C457.285,769.532 450.718,776.241 461,785C491.613,811.078 519.582,780.568 522,754C524.418,727.432 521.278,699.604 523,658C491.385,669.153 475.388,657.942 468,624C465.778,613.79 467.646,605.407 478,604C488.354,602.593 565.35,584.607 584,585C602.65,585.393 619.918,581.701 618,616Z" style="fill:rgb(254,169,2);"/>
        </g>
        <g transform="matrix(-0.769784,0,0,0.769784,10.776979,-1.53956)">
            <path d="M6.825,13L10,13C10.549,13 11,12.549 11,12L11,11L14,13L14,7L11,9L11,7.23C11.632,6.661 11.993,5.85 11.993,5C11.993,3.357 10.643,2.004 9,2C7.435,1.996 6.116,3.216 6,4.777C5.446,4.268 4.721,3.985 3.969,3.985C2.652,3.985 1.522,4.851 1.123,6.041C1.882,6.197 2.483,6.322 2.676,6.349L3.016,6.424L3.35,6.568L3.655,6.786L3.9,7.066L4.094,7.438L4.189,7.804C4.233,8.086 4.22,8.413 4.144,8.762C3.911,9.833 3.512,10.58 3,11.054L3,12C3,12.549 3.451,13 4,13L4.719,13C5.056,12.895 5.416,12.844 5.784,12.845C6.13,12.847 6.482,12.899 6.825,13Z" style="fill:rgb(224,224,224);"/>
        </g>
    </g>
</svg>
