<?xml version="1.0" encoding="UTF-8" standalone="no"?>
<!DOCTYPE svg PUBLIC "-//W3C//DTD SVG 1.1//EN" "http://www.w3.org/Graphics/SVG/1.1/DTD/svg11.dtd">
<svg width="100%" height="100%" viewBox="0 0 16 16" version="1.1" xmlns="http://www.w3.org/2000/svg" xmlns:xlink="http://www.w3.org/1999/xlink" xml:space="preserve" xmlns:serif="http://www.serif.com/" style="fill-rule:evenodd;clip-rule:evenodd;stroke-linejoin:round;stroke-miterlimit:2;">
    <g transform="matrix(0.042759,0,0,0.042759,-11.139092,-22.013773)">
        <path d="M618,616C616.153,649.031 604.92,758.777 598,783C588.225,817.219 549.585,863.99 488,864C448.419,864.006 387.494,841.631 374,782C359.29,716.993 448.666,699.913 455,751.075C457.285,769.532 450.718,776.241 461,785C491.613,811.078 519.582,780.568 522,754C524.418,727.432 521.278,699.604 523,658C491.385,669.153 475.388,657.942 468,624C465.778,613.79 467.646,605.407 478,604C488.354,602.593 565.35,584.607 584,585C602.65,585.393 619.918,581.701 618,616Z" style="fill:rgb(254,169,2);"/>
    </g>
    <g transform="matrix(-0.981375,-0.812805,0.812805,-0.981375,8.328729,26.572699)">
        <path d="M8,11.918C8,11.918 11.82,13.379 14,12C16.18,10.621 15.161,8.299 14,8C11.386,7.233 11.678,11.118 8,11.918Z" style="fill:rgb(141,165,243);"/>
    </g>
</svg>
