<?xml version="1.0" encoding="UTF-8" standalone="no"?>
<!DOCTYPE svg PUBLIC "-//W3C//DTD SVG 1.1//EN" "http://www.w3.org/Graphics/SVG/1.1/DTD/svg11.dtd">
<svg width="100%" height="100%" viewBox="0 0 16 16" version="1.1" xmlns="http://www.w3.org/2000/svg" xmlns:xlink="http://www.w3.org/1999/xlink" xml:space="preserve" xmlns:serif="http://www.serif.com/" style="fill-rule:evenodd;clip-rule:evenodd;stroke-linejoin:round;stroke-miterlimit:2;">
    <g id="Juice-Signals" serif:id="Juice Signals">
        <g transform="matrix(0.042759,0,0,0.042759,-11.609965,-21.653277)">
            <path d="M618,616C616.153,649.031 604.92,758.777 598,783C588.225,817.219 549.585,863.99 488,864C448.419,864.006 387.494,841.631 374,782C359.29,716.993 448.666,699.913 455,751.075C457.285,769.532 450.718,776.241 461,785C491.613,811.078 519.582,780.568 522,754C524.418,727.432 521.278,699.604 523,658C491.385,669.153 475.388,657.942 468,624C465.778,613.79 467.646,605.407 478,604C488.354,602.593 565.35,584.607 584,585C602.65,585.393 619.918,581.701 618,616Z" style="fill:rgb(254,169,2);"/>
        </g>
        <g transform="matrix(0.894473,0,0,0.894473,-4.500004,-4.875815)">
            <path d="M8.368,6C7.042,8.659 7.028,10.325 8.368,13L10.368,13C9.838,11.942 9.519,11.042 9.41,10.175C9.244,8.852 9.566,7.607 10.368,6L8.368,6ZM10.992,6C12.318,8.659 12.332,10.325 10.992,13L12.992,13C14.332,10.325 14.318,8.659 12.992,6L10.992,6ZM6.333,11C5.785,11 5.333,11.451 5.333,12C5.333,12.549 5.785,13 6.333,13C6.882,13 7.333,12.549 7.333,12C7.333,11.451 6.882,11 6.333,11Z" style="fill:rgb(224,224,224);fill-rule:nonzero;"/>
        </g>
    </g>
</svg>
